<?xml version="1.0" encoding="UTF-8" standalone="no"?>
<svg width="599px" height="600px" viewBox="0 0 599 600" version="1.1" xmlns="http://www.w3.org/2000/svg" xmlns:xlink="http://www.w3.org/1999/xlink">
    <!-- Generator: Sketch 3.8.3 (29802) - http://www.bohemiancoding.com/sketch -->
    <title>Layer_1</title>
    <desc>Created with Sketch.</desc>
    <defs></defs>
    <g id="Page-1" stroke="none" stroke-width="1" fill="none" fill-rule="evenodd">
        <g id="upload-university:oauth-logo">
            <g id="Layer_1">
                <path d="M277.725,0.871 C410.29,-8.321 498.188,56.551 548.446,135.59 C573.646,175.22 598.371,235.41 598.485,297.253 C598.607,364.447 576.839,422.636 548.446,465.331 C519.264,509.214 481.52,545.459 434.256,569.258 C355.25,609.041 244.836,610.129 172.515,571.824 C91.973,529.166 30.047,468.279 7.003,362.688 C-2.219,320.432 -3.279,265.833 9.569,218.988 C12.584,207.999 18.063,196.434 22.4,185.629 C43.242,133.705 78.717,88.553 122.477,57.324 C140.061,44.776 161.393,32.296 180.214,23.965 C203.632,13.6 243.06,3.274 277.725,0.871 L277.725,0.871 Z" id="Shape" fill="#FFFFFF"></path>
                <path d="M529.184,304.725 C529.184,430.013 427.618,531.572 302.332,531.572 C177.046,531.572 75.482,430.013 75.482,304.725 C75.482,179.44 177.046,77.873 302.332,77.873 C427.617,77.873 529.184,179.44 529.184,304.725 L529.184,304.725 Z" id="Shape" fill="#000000"></path>
                <path d="M277.725,0.871 C410.29,-8.321 498.188,56.551 548.446,135.59 C573.646,175.22 598.371,235.41 598.485,297.253 C598.607,364.447 576.839,422.636 548.446,465.331 C519.264,509.214 481.52,545.459 434.256,569.258 C355.25,609.041 244.836,610.129 172.515,571.824 C91.973,529.166 30.047,468.279 7.003,362.688 C-2.219,320.432 -3.279,265.833 9.569,218.988 C12.584,207.999 18.063,196.434 22.4,185.629 C43.242,133.705 78.717,88.553 122.477,57.324 C140.061,44.776 161.393,32.296 180.214,23.965 C203.632,13.6 243.06,3.274 277.725,0.871 L277.725,0.871 Z M232.818,22.683 C183.579,35.449 147.476,58.32 116.062,82.986 C70.763,118.554 41.885,168.189 24.966,227.969 C6.143,294.477 18.234,374.959 44.212,425.557 C71.151,478.029 107.322,518.76 158.402,547.446 C208.097,575.354 277.993,593.274 350.859,579.522 C415.599,567.304 464.768,539.101 504.824,497.407 C558.416,441.622 601.489,338.873 572.826,230.535 C565.164,201.58 555.147,171.402 539.466,145.854 C530.994,132.052 518.562,118.474 506.107,104.797 C459.101,53.176 383.128,8.693 285.423,14.984 C266.829,16.181 250.488,18.101 232.818,22.683 L232.818,22.683 Z" id="Shape" fill="#000000"></path>
                <g id="Group" transform="translate(18.000000, 23.000000)" stroke="#FFFFFF" stroke-width="2">
                    <g transform="translate(0.000000, 6.000000)" id="Shape">
                        <path d="M298.051,547.791 L560.188,285.658"></path>
                        <path d="M275.134,527.031 L538.415,263.754"></path>
                        <path d="M252.217,506.273 L516.643,241.851"></path>
                        <path d="M229.3,485.513 L494.87,219.948"></path>
                        <path d="M206.384,464.754 L473.098,198.044"></path>
                        <path d="M183.467,443.996 L451.324,176.141"></path>
                        <path d="M160.55,423.236 L429.552,154.238"></path>
                        <path d="M137.633,402.477 L407.778,132.334"></path>
                        <path d="M114.716,381.718 L386.006,110.431"></path>
                        <path d="M91.8,360.958 L364.233,88.528"></path>
                        <path d="M68.883,340.2 L342.46,66.625"></path>
                        <path d="M45.966,319.441 L320.688,44.721"></path>
                        <path d="M23.049,298.681 L298.915,22.818"></path>
                        <path d="M0.132,277.922 L277.142,0.915"></path>
                    </g>
                    <g id="Shape">
                        <path d="M0.043,286.572 L267.419,553.96"></path>
                        <path d="M21.726,264.579 L289.622,532.488"></path>
                        <path d="M43.409,242.586 L311.825,511.014"></path>
                        <path d="M65.092,220.593 L334.029,489.542"></path>
                        <path d="M86.774,198.6 L356.231,468.068"></path>
                        <path d="M108.457,176.607 L378.436,446.595"></path>
                        <path d="M130.14,154.614 L400.639,425.122"></path>
                        <path d="M151.822,132.621 L422.842,403.648"></path>
                        <path d="M173.505,110.628 L445.046,382.175"></path>
                        <path d="M195.188,88.635 L467.248,360.702"></path>
                        <path d="M216.871,66.642 L489.452,339.229"></path>
                        <path d="M238.553,44.649 L511.655,317.755"></path>
                        <path d="M260.236,22.657 L533.858,296.283"></path>
                        <path d="M281.919,0.664 L556.062,274.809"></path>
                    </g>
                </g>
                <path d="M490.71,106.08 C467.117,82.487 438.111,61.227 403.463,48.343 C367.549,34.988 326.923,23.731 279.008,27.814 C202.682,34.32 149.092,68.565 108.363,108.646 C79.835,136.719 58.376,171.12 44.211,211.289 C23.413,270.27 24.675,339.887 48.06,399.896 C68.007,451.083 100.655,492.369 146.854,524.351 C190.285,554.418 252.619,577.737 322.63,571.824 C407.902,564.622 470.294,520.874 511.237,470.464 C521.713,457.568 532.129,442.991 538.18,425.558 C544.109,412.997 547.011,404.458 549.728,399.897 C561.1,374.415 567.125,347.529 568.973,317.783 C574.658,226.291 539.456,154.827 490.71,106.08 L490.71,106.08 Z M465.579,384.828 C465.416,385.176 465.27,385.5 465.1,385.859 C460.87,397.964 453.583,408.086 446.259,417.042 C417.625,452.046 373.996,482.424 314.364,487.426 C265.403,491.53 221.812,475.339 191.441,454.461 C165.049,436.318 144.987,413.86 130.919,386.87 C130.061,385.246 121.891,366.423 121.867,365.595 C110.722,331.026 109.755,275.44 121.194,242.083 C128.828,219.82 141.551,195.732 158.402,176.648 C181.668,150.297 204.951,133.412 241.8,121.477 C258.625,116.027 273.687,110.48 294.404,109.93 C344.924,108.585 396.369,131.268 423.991,156.119 C449.375,178.956 478.305,223.441 485.578,265.177 C493.063,308.134 485.075,350.075 465.579,384.828 L465.579,384.828 Z" id="Shape" fill="#000000"></path>
                <g id="Group" transform="translate(195.000000, 180.000000)">
                    <path d="M182.768,246.033 C170.328,246.033 159.411,238.155 155.601,226.429 L141.745,184.211 L72.43,184.211 L59.556,226.044 C55.67,237.998 44.67,246 32.166,246 C29.164,246 26.182,245.525 23.303,244.591 C8.357,240.104 -0.128,224.017 4.451,208.751 L62.957,23.428 C66.756,11.639 77.94,3.416 90.157,3.416 L121.267,3.416 C133.553,3.416 144.736,11.499 148.461,23.073 L209.99,208.327 C214.91,223.473 206.763,239.732 191.839,244.59 C188.888,245.548 185.837,246.033 182.768,246.033 L182.768,246.033 L182.768,246.033 Z" id="Shape" fill="#FFFFFF"></path>
                    <path d="M121.268,6.415 C132.086,6.415 142.233,13.515 145.607,23.992 L207.144,209.27 C211.537,222.795 204.437,237.334 190.913,241.736 C188.209,242.614 185.464,243.033 182.768,243.033 C171.978,243.033 161.969,236.325 158.456,225.503 L143.917,181.211 L70.215,181.211 L56.689,225.162 C53.149,236.052 43.033,242.999 32.168,242.999 C29.538,242.999 26.866,242.593 24.231,241.736 C10.705,237.675 3.268,223.135 7.326,209.611 L65.818,24.33 C69.195,13.853 79.003,6.415 90.158,6.415 L121.268,6.415 L121.268,6.415 Z M121.268,0.415 L90.157,0.415 C76.438,0.415 64.362,9.286 60.107,22.489 L1.604,207.804 L1.591,207.845 L1.579,207.886 C-3.47,224.717 5.889,242.457 22.446,247.464 C25.603,248.482 28.874,248.998 32.168,248.998 C45.973,248.998 58.121,240.164 62.395,227.017 L62.41,226.972 L62.424,226.926 L74.647,187.21 L139.572,187.21 L152.757,227.373 C156.96,240.321 169.024,249.032 182.77,249.032 C186.154,249.032 189.518,248.497 192.768,247.442 C209.268,242.072 218.277,224.117 212.852,207.416 L151.311,22.123 C147.178,9.34 134.829,0.415 121.268,0.415 L121.268,0.415 L121.268,0.415 Z" id="Shape" fill="#000000"></path>
                </g>
                <g id="Group" transform="translate(143.000000, 45.000000)" fill="#FFFFFF">
                    <path d="M5.001,79.354 L4.928,79.255 C-2.368,69.256 -0.227,55.268 10.518,47.426 C21.263,39.585 35.066,41.786 42.362,51.784 L42.435,51.883 C49.731,61.882 47.59,75.871 36.845,83.712 C26.1,91.553 12.297,89.353 5.001,79.354 L5.001,79.354 Z M32.658,59.171 L32.585,59.072 C28.919,54.048 22.093,52.32 16.771,56.204 C11.498,60.052 11.088,66.907 14.754,71.932 L14.827,72.031 C18.494,77.055 25.319,78.783 30.592,74.935 C35.915,71.051 36.325,64.196 32.658,59.171 L32.658,59.171 Z" id="Shape"></path>
                    <path d="M75.344,13.817 L86.309,10.299 L117.048,46.033 L104.851,49.946 L99.509,43.576 L83.676,48.656 L83.096,56.927 L71.134,60.765 L75.344,13.817 L75.344,13.817 Z M93.384,35.775 L85.066,25.573 L84.177,38.729 L93.384,35.775 L93.384,35.775 Z" id="Shape"></path>
                    <path d="M136.795,24.567 L136.891,0.364 L149.023,0.412 L148.928,24.369 C148.903,30.589 152.032,33.557 156.836,33.577 C161.64,33.596 164.792,30.776 164.815,24.741 L164.912,0.477 L177.044,0.525 L176.949,24.42 C176.894,38.338 168.926,44.404 156.67,44.355 C144.415,44.305 136.742,38.054 136.795,24.567 L136.795,24.567 Z" id="Shape"></path>
                    <polygon id="Shape" points="220.859 20.338 208.491 16.563 211.547 6.55 247.71 17.587 244.654 27.6 232.286 23.826 222.759 55.042 211.333 51.555"></polygon>
                    <polygon id="Shape" points="280.012 31.559 289.958 38.178 281.02 51.61 293.786 60.106 302.725 46.673 312.671 53.292 288.788 89.181 278.841 82.562 287.917 68.924 275.15 60.428 266.075 74.066 256.129 67.447"></polygon>
                </g>
            </g>
        </g>
    </g>
</svg>